<svg xmlns="http://www.w3.org/2000/svg" viewBox="0 0 868.09 394.42"><defs><style>.cls-1{fill:none;}.cls-2{fill:#ededed;}.cls-3{fill:#ff7271;}.cls-4{fill:#fff;}.cls-5{fill:#aa8fa8;}.cls-6{fill:#454545;}</style></defs><g id="Layer_2" data-name="Layer 2"><g id="Layer_2-2" data-name="Layer 2"><rect class="cls-1" width="868.09" height="394.42"/><circle class="cls-2" cx="449.3" cy="198.9" r="157.78"/><rect class="cls-3" x="570.4" y="137.99" width="149.32" height="121.73"/><polygon class="cls-3" points="739.1 150.88 739.09 122.3 706.24 122.3 706.24 120.77 740.63 120.76 740.64 150.88 739.1 150.88"/><polygon class="cls-3" points="549.48 276.95 549.48 243.24 551.01 243.24 551.02 275.41 584.33 275.4 584.33 276.94 549.48 276.95"/><rect class="cls-4" x="600.76" y="200.78" width="56.89" height="43.75"/><path class="cls-4" d="M590.88,206.36H668l-34.56-28a6.72,6.72,0,0,0-8.47,0Z"/><rect class="cls-4" x="668.71" y="223.33" width="27.57" height="21.2"/><path class="cls-4" d="M663.93,226h37.36l-16.74-13.54a3.25,3.25,0,0,0-4.1,0Z"/><rect class="cls-5" x="152.94" y="117.64" width="281.11" height="183.45"/><circle class="cls-6" cx="158.88" cy="102.77" r="3.07"/><circle class="cls-6" cx="184.38" cy="102.77" r="3.07"/><circle class="cls-6" cx="208.49" cy="102.77" r="3.07"/><path class="cls-6" d="M574.63,314.47v-1.54a117.86,117.86,0,0,0,12.71-.75l.18,1.53A118.45,118.45,0,0,1,574.63,314.47Zm-10.3-.32c-4.16-.28-8.47-.74-12.81-1.37l.22-1.52c4.3.62,8.57,1.08,12.69,1.35ZM597.7,312l-.34-1.5a78.9,78.9,0,0,0,12.11-3.75l.58,1.42A79.82,79.82,0,0,1,597.7,312Zm-56.32-1c-4.14-.84-8.36-1.83-12.52-2.95l.4-1.49c4.13,1.12,8.31,2.1,12.43,2.94ZM519,305.13c-4.18-1.35-8.26-2.82-12.12-4.36l.58-1.43c3.82,1.53,7.87,3,12,4.33Zm100.34-1.57-.79-1.32a59.12,59.12,0,0,0,10.08-7.59l1,1.12A60.88,60.88,0,0,1,619.33,303.56Zm-121.9-6.93a78.59,78.59,0,0,1-9-5c-.75-.5-1.5-1-2.22-1.54l.9-1.24c.71.51,1.44,1,2.17,1.5a77.25,77.25,0,0,0,8.78,4.87ZM636.57,288l-1.23-.92a62.62,62.62,0,0,0,5.33-8.51l1.36.72A64,64,0,0,1,636.57,288ZM478.36,283.4a67.42,67.42,0,0,1-8.23-10l1.27-.86a66.14,66.14,0,0,0,8.05,9.75ZM465,264.46a86.71,86.71,0,0,1-4.78-12l1.47-.46a85.28,85.28,0,0,0,4.69,11.78Zm-7.37-22a117.44,117.44,0,0,1-1.92-12.74l1.53-.15a119.53,119.53,0,0,0,1.89,12.58Zm-2.53-23c0-1.06,0-2.14,0-3.21,0-3.19.1-6.44.31-9.67l1.53.1c-.2,3.19-.31,6.41-.31,9.57,0,1.06,0,2.13,0,3.18ZM516.51,214c-3-1.58-5.79-4.83-8.43-9.92l1.37-.71c2.48,4.8,5,7.83,7.77,9.27Zm10.45-.25-.65-1.39a23.6,23.6,0,0,0,3.74-2.22,47.83,47.83,0,0,0,6.25-5.27l1.09,1.08a49.45,49.45,0,0,1-6.45,5.44A25.09,25.09,0,0,1,527,213.71Zm16.68-16.16-1.36-.72a26.81,26.81,0,0,0,3.21-11.93l1.53,0A28.26,28.26,0,0,1,543.64,197.55Zm-85.79-1.06-1.53-.2a125.7,125.7,0,0,1,2.32-12.69l1.49.36A120.49,120.49,0,0,0,457.85,196.49Zm46.15-2c-1.22-3.28-2.49-7.05-4.1-12.2l1.46-.46c1.61,5.12,2.87,8.87,4.08,12.13Zm40-19.42a36,36,0,0,0-6.05-10.92l1.2-1a37.58,37.58,0,0,1,6.31,11.39Zm-80.39-.57-1.36-.71a68.18,68.18,0,0,1,7-10.88l1.2,1A66.44,66.44,0,0,0,463.58,174.53Zm33.29-2c-1.18-3.85-2.45-8-3.83-12.24l1.47-.47c1.38,4.27,2.7,8.57,3.83,12.26Zm33.91-15.4a47.18,47.18,0,0,0-10.82-6.4l.6-1.42a48.62,48.62,0,0,1,11.17,6.62Zm-53.34-.42-1-1.18a43.1,43.1,0,0,1,11.08-6.79l.59,1.42A41.2,41.2,0,0,0,477.44,156.67Zm12.33-6.13c-1.53-4.32-3-8.23-4.56-11.95l1.42-.59c1.55,3.75,3.05,7.68,4.59,12Zm20.55-2.72a41.74,41.74,0,0,0-7.28-.65h0a39.6,39.6,0,0,0-5.23.34l-.21-1.52a41.08,41.08,0,0,1,5.44-.36h0a43.86,43.86,0,0,1,7.55.67ZM360.45,132.87l-1.54-.12A73.63,73.63,0,0,1,361.36,120l1.48.42A71.38,71.38,0,0,0,360.45,132.87Zm120.6-3.62c-1.93-4-4-7.78-6-11.23l1.32-.79c2.1,3.49,4.16,7.31,6.1,11.35ZM366.18,110.79l-1.42-.61A64.68,64.68,0,0,1,371,98.8l1.26.87A63,63,0,0,0,366.18,110.79Zm103.19-1.23a86.55,86.55,0,0,0-8.26-9.63l1.09-1.09a87.46,87.46,0,0,1,8.4,9.8Zm-15.9-16.27a66.2,66.2,0,0,0-10.76-6.57l.67-1.38a67.24,67.24,0,0,1,11,6.72ZM378.74,92l-1.07-1.11a44.81,44.81,0,0,1,10.56-7.54l.7,1.37A43.26,43.26,0,0,0,378.74,92Zm54.57-8.93c-1.39-.42-2.82-.81-4.25-1.15-2.77-.65-5.51-1.16-8.13-1.53l.21-1.52c2.67.37,5.45.89,8.27,1.56,1.47.34,2.93.74,4.35,1.17Zm-35-1.86L398,79.7a54.23,54.23,0,0,1,12.85-1.56v1.54A53.34,53.34,0,0,0,398.33,81.19Z"/><polygon class="cls-6" points="644.66 285.2 640.48 280.64 634.29 280.5 645.06 270.56 644.66 285.2"/><rect class="cls-4" x="191.48" y="174.33" width="31.59" height="2.41"/><rect class="cls-4" x="191.48" y="227.12" width="159.02" height="2.41"/><rect class="cls-4" x="191.48" y="191.92" width="207.22" height="2.41"/><rect class="cls-4" x="191.48" y="209.52" width="207.22" height="2.41"/></g></g></svg>