<svg xmlns="http://www.w3.org/2000/svg" viewBox="0 0 868.09 394.42"><defs><style>.cls-1{fill:none;}.cls-2{fill:#ededed;}.cls-3{fill:#e2e2e2;}.cls-4{fill:#83acd6;}.cls-5{fill:#444;}.cls-6{fill:#fff;}</style></defs><g id="Layer_2" data-name="Layer 2"><g id="Layer_2-2" data-name="Layer 2"><rect class="cls-1" width="868.09" height="394.42"/><path class="cls-2" d="M245.47,229.53,114.12,111.92A88.15,88.15,0,1,0,245.47,229.53Z"/><circle class="cls-3" cx="605.68" cy="331.43" r="2.8"/><circle class="cls-3" cx="646.36" cy="331.43" r="2.8"/><circle class="cls-3" cx="687.03" cy="331.43" r="2.8"/><circle class="cls-3" cx="727.7" cy="331.43" r="2.8"/><circle class="cls-3" cx="768.37" cy="331.43" r="2.8"/><circle class="cls-3" cx="605.68" cy="299.87" r="2.8"/><circle class="cls-3" cx="646.36" cy="299.87" r="2.8"/><circle class="cls-3" cx="687.03" cy="299.87" r="2.8"/><circle class="cls-3" cx="727.7" cy="299.87" r="2.8"/><circle class="cls-3" cx="768.37" cy="299.87" r="2.8"/><circle class="cls-3" cx="605.68" cy="268.31" r="2.8"/><circle class="cls-3" cx="646.36" cy="268.31" r="2.8"/><circle class="cls-3" cx="687.03" cy="268.31" r="2.8"/><circle class="cls-3" cx="727.7" cy="268.31" r="2.8"/><circle class="cls-3" cx="768.37" cy="268.31" r="2.8"/><circle class="cls-3" cx="605.68" cy="236.75" r="2.8"/><circle class="cls-3" cx="646.36" cy="236.75" r="2.8"/><circle class="cls-3" cx="687.03" cy="236.75" r="2.8"/><circle class="cls-3" cx="727.7" cy="236.75" r="2.8"/><circle class="cls-3" cx="768.37" cy="236.75" r="2.8"/><circle class="cls-3" cx="605.68" cy="205.19" r="2.8"/><circle class="cls-3" cx="646.36" cy="205.19" r="2.8"/><circle class="cls-3" cx="687.03" cy="205.19" r="2.8"/><circle class="cls-3" cx="727.7" cy="205.19" r="2.8"/><circle class="cls-3" cx="768.37" cy="205.19" r="2.8"/><rect class="cls-4" x="280.7" y="86.57" width="342.21" height="223.32"/><rect class="cls-5" x="575.78" y="66.15" width="19.62" height="2.03"/><rect class="cls-5" x="611.89" y="58.23" width="2.03" height="17.87" transform="translate(135.98 457.95) rotate(-45.58)"/><rect class="cls-5" x="603.97" y="66.15" width="17.87" height="2.03" transform="translate(128.14 448.17) rotate(-44.42)"/><rect class="cls-2" x="731.26" y="143.08" width="38.82" height="38.82" transform="translate(1.25 330.64) rotate(-24.86)"/><rect class="cls-6" x="316.79" y="123.59" width="87.05" height="1.31"/><rect class="cls-6" x="316.79" y="238.32" width="87.05" height="1.31"/><rect class="cls-6" x="316.79" y="152.28" width="41.6" height="1.31"/><rect class="cls-6" x="316.79" y="190.52" width="41.6" height="1.31"/><rect class="cls-6" x="316.79" y="200.08" width="41.6" height="1.31"/><rect class="cls-6" x="316.79" y="276.56" width="41.6" height="1.31"/><rect class="cls-6" x="316.79" y="267" width="41.6" height="1.31"/><rect class="cls-6" x="316.79" y="133.15" width="116.26" height="1.31"/><rect class="cls-6" x="316.79" y="209.64" width="116.26" height="1.31"/><rect class="cls-6" x="316.79" y="142.71" width="150.4" height="1.31"/><rect class="cls-6" x="316.79" y="180.96" width="209.43" height="1.31"/><rect class="cls-6" x="316.79" y="257.44" width="209.43" height="1.31"/><rect class="cls-6" x="316.79" y="161.84" width="272.91" height="1.31"/><rect class="cls-6" x="316.79" y="171.4" width="272.91" height="1.31"/><rect class="cls-6" x="316.79" y="247.88" width="272.91" height="1.31"/></g></g></svg>