<svg width="24" height="24" viewBox="0 0 24 24" fill="none" xmlns="http://www.w3.org/2000/svg"><path fill-rule="evenodd" clip-rule="evenodd" d="M18.3374 18.3377H15.67V14.1608C15.67 13.1648 15.651 11.8833 14.283 11.8833C12.893 11.8833 12.681 12.9683 12.681 14.0888V18.3377H10.0146V9.74833H12.574V10.9218H12.6105C12.9665 10.2463 13.838 9.53433 15.137 9.53433C17.838 9.53433 18.3374 11.3128 18.3374 13.6263V18.3377ZM7.00463 8.57385C6.14665 8.57385 5.45566 7.87986 5.45566 7.02537C5.45566 6.17189 6.14665 5.4779 7.00463 5.4779C7.85862 5.4779 8.55211 6.17189 8.55211 7.02537C8.55211 7.87986 7.85862 8.57385 7.00463 8.57385ZM5.66765 18.3377H8.34011V9.74833H5.66765V18.3377ZM19.6669 2.99994H4.32768C3.59569 2.99994 3.0002 3.58093 3.0002 4.29692V19.7012C3.0002 20.4176 3.59569 20.9996 4.32768 20.9996H19.6669C20.4009 20.9996 21.0004 20.4176 21.0004 19.7012V4.29692C21.0004 3.58093 20.4009 2.99994 19.6669 2.99994Z" fill="currentColor"></path></svg>