<svg xmlns="http://www.w3.org/2000/svg" width="841" height="140.22"><path data-name="Path 975" d="M1.897 48.933l81.058 42.292a3.5 3.5 0 003.257 0l81.06-42.292a3.519 3.519 0 000-6.245L86.212.396a3.558 3.558 0 00-3.264 0L1.89 42.688a3.521 3.521 0 00.007 6.245z" fill="#54616c"/><path data-name="Path 976" d="M167.272 70.882l-13.414-7-64.389 33.595a10.568 10.568 0 01-9.748.014L15.309 63.883l-13.412 7a3.519 3.519 0 000 6.246l81.058 42.29a3.5 3.5 0 003.257 0l81.06-42.29a3.521 3.521 0 000-6.246z" fill="#bac0c4"/><path data-name="Path 966" d="M267.905 29.617a3.5 3.5 0 01.9 2.583v9.549q0 3.035-3.37 3.372a21.961 21.961 0 00-7.19 1.741 18.887 18.887 0 00-6.517 4.662q-4.042 4.381-4.044 12.808v23.93a3.112 3.112 0 01-3.37 3.37h-10a3.112 3.112 0 01-3.37-3.37v-55.05a3.112 3.112 0 013.37-3.37h10a3.112 3.112 0 013.37 3.37v4.832a21.639 21.639 0 017.978-6.517 28.455 28.455 0 019.773-2.7 3.023 3.023 0 012.47.79z" fill="#54616c"/><path data-name="Path 967" d="M292.285 89.947a31.276 31.276 0 01-12.694-10.111q-5.507-7.19-5.505-18.874a31.786 31.786 0 014.438-16.851 30.224 30.224 0 0112.078-11.292 36.342 36.342 0 0117.075-3.988 34.119 34.119 0 0115.56 3.652 30.768 30.768 0 0111.854 10.5 25 25 0 013.93 8.763 48.924 48.924 0 01.9 10 6.186 6.186 0 01-1.235 3.934 4.18 4.18 0 01-3.482 1.571h-44.378a12.048 12.048 0 006.179 8.538 21.939 21.939 0 0010.673 2.7 20.555 20.555 0 007.866-1.349 18.775 18.775 0 005.841-3.818 4.331 4.331 0 012.695-1.235 3.632 3.632 0 012.023.674l7.3 4.27a2.9 2.9 0 011.8 2.471 3.86 3.86 0 01-.9 2.135q-10.337 11.571-26.627 11.57a38.407 38.407 0 01-15.391-3.26zm3.99-43.028a11.954 11.954 0 00-5 8.426h30.895a12.1 12.1 0 00-2.247-5.729 14.433 14.433 0 00-5.055-4.382 15.241 15.241 0 00-7.3-1.685 18.139 18.139 0 00-11.293 3.37z" fill="#54616c"/><path data-name="Path 968" d="M445.584 35.573q6.46 6.853 6.459 19.548v33.141a3.111 3.111 0 01-3.374 3.37h-10.22a3.112 3.112 0 01-3.37-3.371V55.122q0-6.4-3.2-9.437-3.2-3.037-8.82-3.034a10.868 10.868 0 00-8.314 3.652q-3.37 3.651-3.482 10.952v31.007a3.111 3.111 0 01-3.37 3.371h-10.224a3.109 3.109 0 01-3.37-3.371v-33.14q0-6.4-3.147-9.437-3.147-3.037-8.763-3.034a10.773 10.773 0 00-8.594 3.876q-3.315 3.877-3.314 12.414l-.112 29.321q0 3.37-3.372 3.371h-10a3.109 3.109 0 01-3.37-3.371v-55.05a3.109 3.109 0 013.37-3.371h10a3.112 3.112 0 013.372 3.371v2.247a27.4 27.4 0 017.864-4.831 22.218 22.218 0 018.426-1.909q13.029 0 19.886 8.426a23.133 23.133 0 018.65-6.235 28.467 28.467 0 0111.234-2.191q12.692.003 19.155 6.854z" fill="#54616c"/><path data-name="Path 969" d="M483.219 88.768a32.78 32.78 0 01-12.19-11.74 31.167 31.167 0 010-32.244 33.077 33.077 0 0112.246-11.8 34.5 34.5 0 0145.951 11.8 30.8 30.8 0 01-.058 32.132 34.493 34.493 0 01-45.949 11.852zm8.258-43.028a16.725 16.725 0 00-6.179 6.235 19.193 19.193 0 00-.056 17.919 15.771 15.771 0 006.123 6.235 16.761 16.761 0 0023.368-6.291 18.621 18.621 0 002.247-8.987 18.033 18.033 0 00-2.191-8.82 16.623 16.623 0 00-6.123-6.347 17.14 17.14 0 00-8.652-2.249 16.6 16.6 0 00-8.537 2.305z" fill="#54616c"/><path data-name="Path 970" d="M570.343 91.744q-1.349 0-2.36-1.911l-28.76-55.722a3.789 3.789 0 01-.45-1.685q0-2.36 2.921-2.359h11.348a4.068 4.068 0 014.044 2.471l13.144 27.75 13.145-27.75a4.067 4.067 0 014.044-2.471h11.46q2.918 0 2.92 2.359a3.788 3.788 0 01-.45 1.685l-28.761 55.722q-.897 1.914-2.245 1.911z" fill="#54616c"/><path data-name="Path 971" d="M625.053 89.947a31.277 31.277 0 01-12.693-10.111q-5.507-7.19-5.505-18.874a31.788 31.788 0 014.438-16.851 30.225 30.225 0 0112.078-11.292 36.342 36.342 0 0117.075-3.988 34.122 34.122 0 0115.559 3.652 30.733 30.733 0 0111.854 10.5 25.013 25.013 0 013.932 8.763 48.947 48.947 0 01.9 10 6.188 6.188 0 01-1.235 3.934 4.184 4.184 0 01-3.487 1.571h-44.375a12.049 12.049 0 006.178 8.538 21.942 21.942 0 0010.673 2.7 20.561 20.561 0 007.866-1.349 18.74 18.74 0 005.839-3.818 4.336 4.336 0 012.7-1.235 3.626 3.626 0 012.021.674l7.3 4.27a2.9 2.9 0 011.8 2.471 3.857 3.857 0 01-.9 2.135q-10.339 11.571-26.628 11.57a38.4 38.4 0 01-15.39-3.26zm3.99-43.028a11.959 11.959 0 00-5 8.426h30.9a12.11 12.11 0 00-2.247-5.729 14.436 14.436 0 00-5.056-4.382 15.235 15.235 0 00-7.3-1.685 18.137 18.137 0 00-11.297 3.37z" fill="#54616c"/><path data-name="Path 973" d="M712.656 90.788a3.468 3.468 0 01-2.473.844h-9.885a3.112 3.112 0 01-3.372-3.37V10.069a3.11 3.11 0 013.372-3.37h9.881a3.106 3.106 0 013.37 3.37v26.177a18.881 18.881 0 017.64-5.619 27.827 27.827 0 0111.122-2.133 31.452 31.452 0 0116.4 4.212 28.364 28.364 0 0110.9 11.628 36.148 36.148 0 013.706 16.4 35.685 35.685 0 01-3.706 16.4 28.385 28.385 0 01-10.667 11.576 31.938 31.938 0 01-16.628 4.27 28.384 28.384 0 01-11.234-2.249q-5.284-2.244-7.528-5.279v3.033a3 3 0 01-.898 2.303zm4.774-17.3q4.551 4.662 12.414 4.66a16.256 16.256 0 0012.246-4.886 17.276 17.276 0 004.72-12.526q0-7.864-4.605-12.7-4.605-4.836-12.36-4.832-7.641 0-12.3 4.832-4.659 4.832-4.664 12.7-.002 8.089 4.549 12.753z" fill="#bac0c4"/><path data-name="Path 974" d="M839.604 30.741a3.337 3.337 0 01.9 2.471v52.91q0 13.482-8.258 21.12-8.258 7.638-22.974 7.64-15.731 0-26.853-7.415a2.916 2.916 0 01-1.573-2.471 3.769 3.769 0 01.786-2.135l4.383-6.4a3.181 3.181 0 012.585-1.571 4.17 4.17 0 012.132.674 29.432 29.432 0 008.09 3.65 33.168 33.168 0 009.211 1.293q15.841 0 15.842-14.381v-1.011q-6.631 5.507-17.3 5.505a35.065 35.065 0 01-17.078-4.046 28.517 28.517 0 01-11.46-11.234 32.007 32.007 0 01-3.932-15.614 31.426 31.426 0 013.932-15.728 28.956 28.956 0 0111.348-11.123 33.785 33.785 0 0117.191-4.153q10.669 0 17.3 5.505v-1.015a3.11 3.11 0 013.37-3.371h9.887a3.338 3.338 0 012.471.9zm-23.422 43.534a16.036 16.036 0 006.123-6.125 16.692 16.692 0 002.245-8.424 16.872 16.872 0 00-2.189-8.54 16.152 16.152 0 00-6.123-6.065 17.437 17.437 0 00-8.652-2.135 16.564 16.564 0 00-12.246 4.718 16.29 16.29 0 00-4.717 12.022q0 7.528 4.608 12.134 4.608 4.606 12.355 4.605a17.18 17.18 0 008.596-2.19z" fill="#bac0c4"/><path d="M230.949 113.209h7.527q5.3 0 7.673 1.586a5.6 5.6 0 012.369 5.012 5.791 5.791 0 01-1.321 3.911 6.361 6.361 0 01-3.855 2v.182q6.068 1.033 6.068 6.373a6.851 6.851 0 01-2.415 5.577 10.279 10.279 0 01-6.753 2h-9.3zm3.098 11.409h5.1a8.308 8.308 0 004.721-1.03 3.976 3.976 0 001.442-3.47 3.514 3.514 0 00-1.6-3.236 10.022 10.022 0 00-5.1-.993h-4.563zm0 2.625v9.97h5.563a7.918 7.918 0 004.853-1.249 4.61 4.61 0 001.631-3.909 4.14 4.14 0 00-1.668-3.645 8.913 8.913 0 00-5.076-1.166zm29.743-.711l7.108-13.323h3.354l-8.895 16.309v10.337h-3.135v-10.188l-8.876-16.458h3.39zm47.547 13.323h-3.645l-9.715-12.922-2.788 2.479v10.443h-3.1v-26.646h3.1v13.209l12.084-13.209h3.663l-10.717 11.573zm22.653 0l-3.317-8.475h-10.681l-3.282 8.475h-3.133L324.11 113.1h2.606l10.48 26.756zm-4.28-11.263l-3.1-8.256q-.6-1.567-1.239-3.846a34.534 34.534 0 01-1.148 3.846l-3.137 8.256zm13.391 11.263v-26.646h3.1v23.84h11.756v2.806zm36.468 0H364.71v-26.646h14.854v2.752H367.81v8.584h11.045v2.734H367.81v9.806h11.756zm8.145 0v-26.646h3.1v26.646zm33.916-13.578q0 6.6-3.581 10.088-3.581 3.488-10.307 3.49h-7.382v-26.646h8.165q6.215 0 9.66 3.445 3.445 3.445 3.445 9.623zm-3.281.109q0-5.213-2.615-7.855-2.615-2.642-7.774-2.643h-4.5v21.288h3.773q5.541 0 8.329-2.725 2.788-2.725 2.787-8.065zm34.591.109q0 6.4-3.235 10.061-3.235 3.661-8.995 3.662-5.887 0-9.086-3.6-3.199-3.6-3.2-10.161 0-6.507 3.208-10.088 3.208-3.581 9.113-3.581 5.741 0 8.967 3.645 3.226 3.645 3.228 10.063zm-21.233 0q0 5.413 2.306 8.211a8.18 8.18 0 006.7 2.8q4.429 0 6.689-2.789t2.26-8.22q0-5.377-2.251-8.156-2.251-2.779-6.662-2.779a8.224 8.224 0 00-6.734 2.8q-2.305 2.794-2.305 8.134zm58.1 13.36l-3.317-8.475h-10.68l-3.281 8.475h-3.135l10.535-26.756h2.606l10.475 26.756zm-4.283-11.263l-3.1-8.256q-.6-1.567-1.239-3.846a34.53 34.53 0 01-1.148 3.846l-3.135 8.256zm13.394 11.263v-26.646h3.1v26.646z" data-name="Path 39833" fill="#bac0c4"/></svg>