<svg width="24" height="24" viewBox="0 0 24 24" fill="none" xmlns="http://www.w3.org/2000/svg"><path d="M19.7356 6.68821C20.539 6.15699 21.1562 5.31597 21.4469 4.31377C20.6948 4.80567 19.8618 5.16285 18.9752 5.35519C18.2653 4.52118 17.2538 4 16.1343 4C13.9849 4 12.2422 5.92145 12.2422 8.2916C12.2422 8.62786 12.2766 8.95544 12.343 9.26964C9.10826 9.09058 6.24033 7.38207 4.32076 4.78559C3.98573 5.41941 3.79374 6.15657 3.79374 6.9431C3.79374 8.43207 4.48087 9.74563 5.52522 10.5152C4.88723 10.4929 4.28708 10.2999 3.76235 9.97845C3.76197 9.99634 3.76197 10.0143 3.76197 10.0324C3.76197 12.1118 5.10359 13.8463 6.88411 14.2407C6.55752 14.3387 6.21368 14.3912 5.85873 14.3912C5.60793 14.3912 5.36406 14.3642 5.12636 14.3142C5.62169 16.019 7.05902 17.26 8.76223 17.2945C7.43019 18.4457 5.75202 19.1317 3.92844 19.1317C3.61428 19.1317 3.30448 19.1114 3 19.0716C4.72247 20.2894 6.76829 21 8.96626 21C16.1252 21 20.0402 14.4604 20.0402 8.78914C20.0402 8.60318 20.0363 8.41805 20.0288 8.23397C20.7893 7.62891 21.4491 6.87303 21.9709 6.01245C21.273 6.35373 20.5228 6.58446 19.7356 6.68821Z" fill="currentColor"></path></svg>